<?xml version="1.0" encoding="UTF-8"?>
<svg id="Calque_2" data-name="Calque 2" xmlns="http://www.w3.org/2000/svg" viewBox="0 0 969 825">
  <defs>
    <style>
      .cls-1 {
        fill: #fff;
      }
    </style>
  </defs>
  <g id="Calque_1-2" data-name="Calque 1">
    <g>
      <path class="cls-1" d="M969,0v825H0V0h969ZM360,38H31v700h86v-263h227.5l1.5-1.5v-74.5H117v-22h229v-74.5l-1.5-1.5H117V115h243V38ZM483.5,38h-63.5v766h456.5l41.5-42.99-437-2,2.51-721.01ZM544,738l159.54.04c144.88-6.03,206.71-95.33,228.32-229.68,16.71-103.89,16.9-272.45-34.69-366.04C822.23,6.4,677.76,43.52,547.45,37.95l-3.45,1.55v698.5Z"/>
      <path d="M544,738V39.5l3.45-1.55c130.31,5.57,274.78-31.55,349.72,104.38,51.6,93.58,51.4,262.15,34.69,366.04-21.61,134.35-83.44,223.65-228.32,229.68l-159.54-.04ZM631,665c40.28-1.16,81.96,4.72,120.27-10.23,89.78-35.04,97.18-165.51,99.69-247.31,2.42-78.85,2.83-212.98-65.49-266.43-44.43-34.76-101.41-27.4-154.47-28.03v552Z"/>
      <polygon points="360 38 360 115 117 115 117 301 344.5 301 346 302.5 346 377 117 377 117 399 346 399 346 473.5 344.5 475 117 475 117 738 31 738 31 38 360 38"/>
      <polygon points="483.5 38 480.99 759.01 918 761.01 876.5 804 420 804 420 38 483.5 38"/>
      <path class="cls-1" d="M631,665V113c53.06.63,110.05-6.73,154.47,28.03,68.31,53.45,67.91,187.58,65.49,266.43-2.51,81.8-9.91,212.27-99.69,247.31-38.31,14.95-79.99,9.08-120.27,10.23Z"/>
    </g>
  </g>
</svg>